# xmcd CD database file
#
# Track frame offsets:
#	150
#	14232
#	25698
#	43859
#	61617
#	75815
#	90443
#	107517
#	131060
#	143214
#	157565
#	175707
#	193670
#	207586
#	224310
#	238158
#
# Disc length: 3409 seconds
#
# Revision: 0
# Processed by: cddbd v1.5.1PL0 Copyright (c) Steve Scherf et al.
# Submitted via: NeoAudio 9.9.9
#
DISCID=cd0d4f10
DTITLE=CO-UNT-RY - CO-UNT-RY  vol 1
DYEAR=1900
DGENRE=Country
TTITLE0=here comes forever
TTITLE1=rub-a-dubbin
TTITLE2=otras y otras
TTITLE3=no more you
TTITLE4=lf you ever need a fool
TTITLE5=blue lights and broken hearts
TTITLE6=ways of the hearts
TTITLE7=easier
TTITLE8=a solid thing
TTITLE9=honky tonk ball
TTITLE10=rose of my heart
TTITLE11=lt should have been me
TTITLE12=how many men
TTITLE13=the end of the line
TTITLE14=isabels eyes
TTITLE15=england to texas
EXTD=
EXTT0=
EXTT1=
EXTT2=
EXTT3=
EXTT4=
EXTT5=
EXTT6=
EXTT7=
EXTT8=
EXTT9=
EXTT10=
EXTT11=
EXTT12=
EXTT13=
EXTT14=
EXTT15=
PLAYORDER=
